<?xml version="1.0" encoding="UTF-8"?>
<svg version="1.1" xmlns="http://www.w3.org/2000/svg" width="82" height="82">
<path d="M0 0 C27.06 0 54.12 0 82 0 C82 27.06 82 54.12 82 82 C54.94 82 27.88 82 0 82 C0 54.94 0 27.88 0 0 Z " fill="#1F201F" transform="translate(0,0)"/>
<path d="M0 0 C1.32 0 2.64 0 4 0 C4.33 1.65 4.66 3.3 5 5 C11.36539272 7.11293829 17.31006781 8.46048934 24 9 C24 10.32 24 11.64 24 13 C23.01 13.33 22.02 13.66 21 14 C21.433125 15.12019531 21.86625 16.24039063 22.3125 17.39453125 C22.87526053 18.86708796 23.43774624 20.33974972 24 21.8125 C24.28617188 22.55048828 24.57234375 23.28847656 24.8671875 24.04882812 C25.13789062 24.76103516 25.40859375 25.47324219 25.6875 26.20703125 C25.93886719 26.8616333 26.19023438 27.51623535 26.44921875 28.19067383 C27 30 27 30 27 33 C22.80590318 35.39662675 19.8458087 36.70668044 15 36 C11.625 34 11.625 34 9 32 C10.92556636 25.14381674 13.2472483 18.56747868 16 12 C14.700625 12.061875 14.700625 12.061875 13.375 12.125 C10 12 10 12 4 10 C4 20.23 4 30.46 4 41 C7.63 41 11.26 41 15 41 C15 42.32 15 43.64 15 45 C6.75 45 -1.5 45 -10 45 C-10.33 43.68 -10.66 42.36 -11 41 C-7.37 41 -3.74 41 0 41 C0 30.77 0 20.54 0 10 C-1.98 10.66 -3.96 11.32 -6 12 C-8.875 12.125 -8.875 12.125 -11 12 C-10.55527344 13.16917969 -10.11054688 14.33835937 -9.65234375 15.54296875 C-9.08007652 17.09090471 -8.50849794 18.63909538 -7.9375 20.1875 C-7.64294922 20.95642578 -7.34839844 21.72535156 -7.04492188 22.51757812 C-4.35719927 29.88510009 -4.35719927 29.88510009 -6 34 C-10.27098956 36.84732637 -14.21212181 35.9266861 -19 35 C-19.99 34.34 -20.98 33.68 -22 33 C-21.57534294 25.63927766 -19.01651083 19.67862176 -16 13 C-17.32 12.67 -18.64 12.34 -20 12 C-20 11.01 -20 10.02 -20 9 C-18.69675781 8.81824219 -18.69675781 8.81824219 -17.3671875 8.6328125 C-16.21476562 8.46523438 -15.06234375 8.29765625 -13.875 8.125 C-12.16957031 7.88136719 -12.16957031 7.88136719 -10.4296875 7.6328125 C-7.13921085 7.02568583 -4.14220897 6.13654367 -1 5 C-0.67 3.35 -0.34 1.7 0 0 Z " fill="#CAA884" transform="translate(41,21)"/>
<path d="M0 0 C3.45854519 3.45854519 4 7.21904213 4 12 C1.36 12 -1.28 12 -4 12 C-3.33501617 7.61110675 -1.81242323 4.0188515 0 0 Z " fill="#2F2D28" transform="translate(27,40)"/>
<path d="M0 0 C0.66 0 1.32 0 2 0 C5 6.5 5 6.5 5 11 C2.36 11 -0.28 11 -3 11 C-2.69078116 9.54096742 -2.37751201 8.08279278 -2.0625 6.625 C-1.88847656 5.81289063 -1.71445312 5.00078125 -1.53515625 4.1640625 C-1 2 -1 2 0 0 Z " fill="#2D2B27" transform="translate(58,41)"/>
</svg>
